<?xml version="1.0" standalone="no"?>
<!DOCTYPE svg PUBLIC "-//W3C//DTD SVG 20010904//EN"
 "http://www.w3.org/TR/2001/REC-SVG-20010904/DTD/svg10.dtd">
<svg version="1.0" xmlns="http://www.w3.org/2000/svg"
 width="259.000000pt" height="63.000000pt" viewBox="0 0 259.000000 63.000000"
 preserveAspectRatio="xMidYMid meet">

<g transform="translate(0.000000,63.000000) scale(0.100000,-0.100000)"
fill="#000000" stroke="none">
<path d="M29 601 l-29 -29 0 -257 0 -257 29 -29 29 -29 1237 0 1237 0 29 29
29 29 0 257 0 257 -29 29 -29 29 -1237 0 -1237 0 -29 -29z m517 -216 c5 -21
12 -25 40 -25 24 0 34 -5 34 -15 0 -10 -11 -15 -35 -15 -34 0 -35 -1 -35 -41
l0 -42 45 6 c34 5 45 3 45 -7 0 -15 -30 -26 -72 -26 -33 0 -58 33 -58 76 0 21
-6 34 -17 39 -16 6 -17 7 -2 18 9 7 19 22 23 35 10 29 24 28 32 -3z m357 -22
c3 -39 5 -44 11 -25 7 17 16 22 42 22 24 0 34 -5 34 -15 0 -8 -6 -15 -13 -15
-8 0 -21 -8 -30 -18 -16 -17 -16 -20 6 -39 12 -11 30 -23 40 -26 26 -10 11
-27 -24 -27 -22 0 -32 6 -39 24 -14 38 -30 41 -30 7 0 -28 -3 -31 -30 -31 -20
0 -30 5 -30 15 0 8 7 15 15 15 12 0 15 14 15 65 0 51 -3 65 -15 65 -8 0 -15 7
-15 15 0 10 10 15 29 15 28 0 30 -2 34 -47z m837 -33 c0 -64 3 -80 15 -80 8 0
15 -6 15 -14 0 -24 -123 -19 -155 6 -32 25 -32 62 1 95 21 21 32 24 60 20 25
-4 34 -2 34 9 0 8 -4 14 -10 14 -5 0 -10 7 -10 15 0 9 9 15 25 15 25 0 25 -1
25 -80z m120 65 c0 -8 -7 -15 -15 -15 -8 0 -15 7 -15 15 0 8 7 15 15 15 8 0
15 -7 15 -15z m392 3 c8 -22 -6 -111 -18 -115 -19 -6 -35 103 -17 120 11 11
31 8 35 -5z m-1812 -30 c0 -30 -24 -39 -34 -12 -8 20 -60 15 -64 -7 -2 -12 9
-19 42 -28 51 -13 73 -40 56 -70 -13 -25 -33 -31 -93 -29 -44 2 -47 4 -47 30
0 31 14 36 36 13 20 -19 58 -19 74 0 10 12 10 16 -1 19 -72 21 -94 33 -97 55
-6 39 24 61 79 59 46 -2 49 -4 49 -30z m1110 -3 c0 -38 -19 -48 -27 -15 -4 15
-14 20 -39 20 -27 0 -34 -4 -34 -20 0 -11 7 -20 15 -20 8 0 15 5 15 10 0 6 7
10 15 10 10 0 15 -11 15 -35 0 -24 -5 -35 -15 -35 -8 0 -15 5 -15 10 0 6 -7
10 -15 10 -9 0 -15 -9 -15 -25 0 -22 4 -25 40 -25 33 0 40 3 40 20 0 11 7 20
15 20 10 0 15 -11 15 -35 l0 -35 -79 0 c-75 0 -112 13 -77 26 12 5 16 21 16
64 0 43 -4 59 -16 64 -34 13 1 26 72 26 l74 0 0 -35z m-769 -15 c14 -8 19 -21
19 -54 0 -31 5 -46 16 -50 8 -3 12 -10 9 -16 -8 -13 -55 -13 -55 0 0 6 -9 5
-24 -1 -29 -14 -72 -5 -80 16 -9 25 29 55 70 55 51 0 39 24 -14 28 -62 5 -53
29 11 31 16 1 37 -4 48 -9z m383 -11 c14 -11 26 -29 26 -40 0 -17 -7 -19 -60
-19 -33 0 -60 -4 -60 -9 0 -16 38 -23 80 -16 32 5 40 4 40 -8 0 -32 -95 -36
-134 -6 -33 26 -34 62 -1 94 30 31 73 32 109 4z m706 -33 c0 -51 2 -55 25 -58
54 -7 27 -23 -42 -26 -60 -2 -73 0 -73 13 0 10 10 15 30 15 28 0 30 2 30 40 0
33 -3 40 -19 40 -21 0 -34 13 -24 24 3 3 21 6 40 6 l33 0 0 -54z m222 37 c11
-10 18 -30 18 -54 0 -21 5 -41 10 -44 18 -11 0 -25 -31 -25 -19 0 -29 5 -29
15 0 8 5 15 11 15 6 0 9 16 7 38 -3 34 -6 37 -33 37 -27 0 -30 -3 -33 -37 -2
-22 1 -38 7 -38 6 0 11 -7 11 -15 0 -10 -11 -15 -35 -15 -24 0 -35 5 -35 15 0
8 5 15 10 15 13 0 13 77 0 85 -21 13 2 23 52 23 35 1 59 -5 70 -15z m158 -108
c0 -8 -6 -15 -14 -15 -17 0 -28 14 -19 24 12 12 33 6 33 -9z"/>
<path d="M1636 317 c-37 -27 -1 -75 47 -63 19 4 27 13 27 29 0 43 -38 60 -74
34z"/>
<path d="M707 273 c-13 -12 -7 -23 12 -23 26 0 51 10 51 21 0 10 -53 12 -63 2z"/>
<path d="M1080 315 c-11 -13 -7 -15 29 -15 41 0 55 13 25 24 -25 10 -41 7 -54
-9z"/>
</g>
</svg>
